<?xml version="1.0" encoding="UTF-8"?>
<svg xmlns="http://www.w3.org/2000/svg" width="634.10345" height="288.26032">
	<defs>
		<clipPath id="st-clip">
			<path id="st" d="m 118.92795 0 c -24.61827 0.0284 -44.66532 20.04521 -44.66532 44.66532 0 12.80333 7.3344 22.98933 14.05741 30.74104 3.36199 3.87641 6.48017 7.27257 8.73912 9.94781 1.18745 1.4063 1.86963 2.2706 2.91207 3.6692 0.64674 0.86771 0.13342 1.7423 -0.72171 1.7423 h -99.24952 v 49.06083 h 118.34534 c 23.85077 0 43.27513 -19.42435 43.27513 -43.27514 0 -15.65778 -7.71268 -27.66023 -15.02509 -36.21069 -3.65829 -4.27768 -5.96883 -6.46419 -7.71709 -8.21247 -1.14681 -1.14682 -4.22459 -4.008 -5.10609 -4.8895 -0.52849 -0.5285 -0.13213 -1.40669 0.58269 -1.40669 h 58.58292 v 93.99449 h 50.72076 v -93.99449 h 58.50481 v -45.83201 z"/>
		</clipPath>
		<clipPath id="a-clip">
			<path id="a" d="m 324.51354 0 l -43.103 139.8265 h 52.44782 l 5.8207 -18.18232 h 43.6444 l 5.8207 18.18232 h 52.44782 l -43.103 -139.8265 z m 36.98772 52.168 l 9.503 27.638 h -19.006 z"/>
		</clipPath>
		<clipPath id="r-clip">
			<path id="r" d="m 449.31353 0 v 139.8265 h 56.08602 v -34.77567 l 17.5511 18.48585 c 7.61829 8.02403 15.86354 16.28981 36.5316 16.28982 h 74.6212 v -49.06083 h -61.94486 c -3.26079 0 -4.86522 -0.68873 -6.97321 -3.23477 3.83505 -2.54066 6.92894 -4.83288 11.24677 -9.74988 5.86385 -6.67755 10.77915 -16.04323 10.80477 -28.03915 0.0585 -27.4279 -22.31576 -49.74187 -49.73277 -49.74187 z m 82.166 44.27261 c 3.74181 0 6.66644 2.92466 6.66644 6.66644 0 3.74179 -2.92463 6.66644 -6.66644 6.66644 h -26.07998 v -13.33288 z"/>
		</clipPath>
		<clipPath id="w-clip">
			<path id="w" d="m 0 148.43382 l 42.27313 139.8265 h 39.86833 l 14.29635 -50.86829 14.29635 50.86829 h 39.86833 l 42.27313 -139.8265 h -52.15472 l -7.79247 28.37058 -9.06844 -28.37058 h -54.84436 l -9.06844 28.37058 -7.79247 -28.37058 z"/>
		</clipPath>
		<clipPath id="rs-clip">
			<path id="rs" d="m 345.65952 148.43382 v 139.8265 h 56.08602 v -34.77567 l 17.5511 18.48585 c 7.61829 8.02403 15.86354 16.28981 36.5316 16.28982 h 98.66014 c 23.85077 0 43.27513 -19.42435 43.27513 -43.27514 0 -15.65778 -7.71268 -27.66023 -15.02509 -36.21069 -3.65829 -4.27768 -5.96883 -6.46419 -7.71709 -8.21247 -1.14681 -1.14682 -4.22459 -4.008 -5.10609 -4.8895 -0.52849 -0.5285 -0.13213 -1.40669 0.58269 -1.40669 h 63.60552 v -45.83201 h -79.03246 c -24.61827 0.0284 -44.66532 20.04521 -44.66532 44.66532 0 12.80333 7.3344 22.98933 14.05741 30.74104 3.36199 3.87641 6.48017 7.27257 8.73912 9.94781 1.18745 1.4063 1.86963 2.2706 2.91207 3.6692 0.64674 0.86771 0.13342 1.7423 -0.72171 1.7423 h -66.88798 c -3.26079 0 -4.86522 -0.68873 -6.97321 -3.23477 3.83505 -2.54066 6.92894 -4.83288 11.24677 -9.74988 5.86385 -6.67755 10.77915 -16.04323 10.80477 -28.03915 0.0585 -27.4279 -22.31576 -49.74187 -49.73277 -49.74187 z m 82.166 44.27261 c 3.74181 0 6.66644 2.92466 6.66644 6.66644 0 3.74179 -2.92463 6.66644 -6.66644 6.66644 h -26.07998 v -13.33288 z"/>
		</clipPath>
	</defs>
	<g stroke="#ebaf0b" stroke-width="10">
		<use href="#st" clip-path="url(#st-clip)"/>
		<use href="#a" clip-path="url(#a-clip)"/>
		<use href="#r" clip-path="url(#r-clip)"/>
		<use href="#w" clip-path="url(#w-clip)"/>
		<use href="#a" clip-path="url(#a-clip)" transform="translate(-107.71289 148.43382)"/>
		<use href="#rs" clip-path="url(#rs-clip)"/>
	</g>
</svg>